<mxfile host="app.diagrams.net" agent="Mozilla/5.0 (Windows NT 10.0; Win64; x64) AppleWebKit/537.36 (KHTML, like Gecko) Chrome/139.0.0.0 Safari/537.36 Edg/139.0.0.0" version="28.1.2">
  <diagram name="ページ1" id="Puh7-I7mzjjmiL3vDldl">
    <mxGraphModel dx="2688" dy="1877" grid="1" gridSize="10" guides="1" tooltips="1" connect="1" arrows="1" fold="1" page="1" pageScale="1" pageWidth="827" pageHeight="1169" math="0" shadow="0">
      <root>
        <mxCell id="0" />
        <mxCell id="1" parent="0" />
        <mxCell id="Pp48qL5yRf0eUo82ehOM-2" value="&lt;p style=&quot;margin:0px;margin-top:4px;text-align:center;&quot;&gt;&lt;br&gt;&lt;b&gt;MainGameSetting&lt;/b&gt;&lt;/p&gt;&lt;hr size=&quot;1&quot; style=&quot;border-style:solid;&quot;&gt;&lt;p style=&quot;margin:0px;margin-left:4px;&quot;&gt;+ DifficultyType: enum&lt;br&gt;- difficulty: DifficultyType&lt;/p&gt;&lt;hr size=&quot;1&quot; style=&quot;border-style:solid;&quot;&gt;&lt;p style=&quot;margin:0px;margin-left:4px;&quot;&gt;+ MainGameSetting(difficulty: Difficulty)&lt;/p&gt;&lt;p style=&quot;margin:0px;margin-left:4px;&quot;&gt;&amp;lt;&amp;lt;Property&amp;gt;&amp;gt;&lt;/p&gt;&lt;p style=&quot;margin:0px;margin-left:4px;&quot;&gt;+ DifficultyType(): DifficultyType&lt;br&gt;&lt;/p&gt;" style="verticalAlign=top;align=left;overflow=fill;html=1;whiteSpace=wrap;" parent="1" vertex="1">
          <mxGeometry y="-40" width="240" height="140" as="geometry" />
        </mxCell>
        <mxCell id="Pp48qL5yRf0eUo82ehOM-3" value="&lt;p style=&quot;margin:0px;margin-top:4px;text-align:center;&quot;&gt;&lt;br&gt;&lt;b&gt;MainGameUIFacade&lt;/b&gt;&lt;/p&gt;&lt;hr size=&quot;1&quot; style=&quot;border-style:solid;&quot;&gt;&lt;p style=&quot;margin:0px;margin-left:4px;&quot;&gt;- board: Board&lt;br&gt;- missUI: MissUI&lt;/p&gt;&lt;p style=&quot;margin:0px;margin-left:4px;&quot;&gt;- inputNumberButtons: InputNumberButton[]&lt;/p&gt;&lt;p style=&quot;margin:0px;margin-left:4px;&quot;&gt;- clearButton: ClearButton&lt;/p&gt;&lt;p style=&quot;margin:0px;margin-left:4px;&quot;&gt;- memoButton: MemoButton&lt;/p&gt;&lt;hr size=&quot;1&quot; style=&quot;border-style:solid;&quot;&gt;&lt;p style=&quot;margin:0px;margin-left:4px;&quot;&gt;+ CreateCell(aGrid: int[,], qGrid: int[,], unityAction: UnityAction&amp;lt;int, int&amp;gt;): void&lt;br&gt;+ ClearNumber(row: int, col: int): void&lt;/p&gt;&lt;p style=&quot;margin:0px;margin-left:4px;&quot;&gt;+ SetSelectedHighlight(currentRow: int, currentCol: int, oldRow: int, oldCol: int): void&lt;/p&gt;&lt;p style=&quot;margin:0px;margin-left:4px;&quot;&gt;+ ToggleMemo(row: int, col: int, number: int): void&lt;/p&gt;&lt;p style=&quot;margin:0px;margin-left:4px;&quot;&gt;+ ShowNumber(row: int, col: int, inputNumber: int, isCorrect: bool): void&lt;/p&gt;&lt;p style=&quot;margin:0px;margin-left:4px;&quot;&gt;+ SetMissCount(missCount: int): void&lt;/p&gt;&lt;p style=&quot;margin:0px;margin-left:4px;&quot;&gt;+ SetFailNumber(failNumber: int): void&lt;/p&gt;&lt;p style=&quot;margin:0px;margin-left:4px;&quot;&gt;+ InputNumberButtonInitialize(index: int, unityAction: UnityAction&amp;lt;int&amp;gt;): void&lt;/p&gt;&lt;p style=&quot;margin:0px;margin-left:4px;&quot;&gt;+ GetInputNumberButtonsLength(): int&lt;/p&gt;&lt;p style=&quot;margin:0px;margin-left:4px;&quot;&gt;+ ClearButtonInitialize(unityAction: UnityAction): void&lt;/p&gt;&lt;p style=&quot;margin:0px;margin-left:4px;&quot;&gt;+ MemoButtonInitialize(memoMode: Func&amp;lt;boo&amp;gt;, unityAction: UnityAction): void&lt;/p&gt;" style="verticalAlign=top;align=left;overflow=fill;html=1;whiteSpace=wrap;" parent="1" vertex="1">
          <mxGeometry x="600" y="240" width="560" height="320" as="geometry" />
        </mxCell>
        <mxCell id="Pp48qL5yRf0eUo82ehOM-4" value="&lt;p style=&quot;margin:0px;margin-top:4px;text-align:center;&quot;&gt;&lt;br&gt;&lt;b&gt;MainGameLogicFacade&lt;/b&gt;&lt;/p&gt;&lt;hr size=&quot;1&quot; style=&quot;border-style:solid;&quot;&gt;&lt;p style=&quot;margin:0px;margin-left:4px;&quot;&gt;- generateGrid: GenerateGrid&lt;br&gt;- Judge: Judge&lt;/p&gt;&lt;p style=&quot;margin:0px;margin-left:4px;&quot;&gt;- result: Result&lt;/p&gt;&lt;p style=&quot;margin:0px;margin-left:4px;&quot;&gt;- mainGameInput: MainGameInput&lt;/p&gt;&lt;hr size=&quot;1&quot; style=&quot;border-style:solid;&quot;&gt;&lt;p style=&quot;margin:0px;margin-left:4px;&quot;&gt;+ EmptyCell(difficultyType: MainGameSetting.DifficultyType): int&lt;br&gt;+ CreateAnswerGrid(row: int, col: int, aGrid: int[,]): bool&lt;/p&gt;&lt;p style=&quot;margin:0px;margin-left:4px;&quot;&gt;+ CreateQuestionGrid(qGrid: int[,], emptyCell: int): void&lt;/p&gt;&lt;p style=&quot;margin:0px;margin-left:4px;&quot;&gt;+ DebugGrid(grid: int[,]): void&lt;/p&gt;&lt;p style=&quot;margin:0px;margin-left:4px;&quot;&gt;+ CheckAnswer(selectCellAnswerNumber: int, inputNumber: int): bool&lt;/p&gt;&lt;p style=&quot;margin: 0px 0px 0px 4px;&quot;&gt;+ FailNumber(difficultyType: MainGameSetting.DifficultyType): int&lt;br&gt;+ Correct(isAllCorrect: bool): void&lt;/p&gt;&lt;p style=&quot;margin: 0px 0px 0px 4px;&quot;&gt;+ InCorrect(missCount: ref int, failNumber: int): void&lt;/p&gt;&lt;p style=&quot;margin: 0px 0px 0px 4px;&quot;&gt;+ IsAllCorrect(qGrid: int[,], aGrid: int[,]): bool&lt;/p&gt;&lt;p style=&quot;margin: 0px 0px 0px 4px;&quot;&gt;+ ToggleMemoMode(memoMode: ref bool): void&lt;/p&gt;" style="verticalAlign=top;align=left;overflow=fill;html=1;whiteSpace=wrap;" parent="1" vertex="1">
          <mxGeometry x="-40" y="320" width="405" height="280" as="geometry" />
        </mxCell>
        <mxCell id="Pp48qL5yRf0eUo82ehOM-5" value="&lt;p style=&quot;margin:0px;margin-top:4px;text-align:center;&quot;&gt;&lt;br&gt;&lt;b&gt;MainGame&lt;/b&gt;&lt;/p&gt;&lt;hr size=&quot;1&quot; style=&quot;border-style:solid;&quot;&gt;&lt;p style=&quot;margin:0px;margin-left:4px;&quot;&gt;&lt;u&gt;+ Cell_Number: readonly int&lt;/u&gt;&lt;br&gt;- answerGrid: int[,]&lt;/p&gt;&lt;p style=&quot;margin:0px;margin-left:4px;&quot;&gt;- questionGrid: int[,]&lt;/p&gt;&lt;p style=&quot;margin:0px;margin-left:4px;&quot;&gt;- missCount: int&lt;/p&gt;&lt;p style=&quot;margin:0px;margin-left:4px;&quot;&gt;- failNumber: int&lt;/p&gt;&lt;p style=&quot;margin:0px;margin-left:4px;&quot;&gt;- memoMode: bool&lt;/p&gt;&lt;p style=&quot;margin:0px;margin-left:4px;&quot;&gt;- currentRow: int&lt;/p&gt;&lt;p style=&quot;margin:0px;margin-left:4px;&quot;&gt;- currentCol: int&lt;/p&gt;&lt;p style=&quot;margin:0px;margin-left:4px;&quot;&gt;- oldRow: int&lt;/p&gt;&lt;p style=&quot;margin:0px;margin-left:4px;&quot;&gt;- oldCol: int&lt;/p&gt;&lt;p style=&quot;margin:0px;margin-left:4px;&quot;&gt;- mainGameUIFacade: MainGameUIFacade&lt;/p&gt;&lt;p style=&quot;margin:0px;margin-left:4px;&quot;&gt;- mainGameLogicFacade: MainGameLogicFacade&lt;/p&gt;&lt;hr size=&quot;1&quot; style=&quot;border-style:solid;&quot;&gt;&lt;p style=&quot;margin:0px;margin-left:4px;&quot;&gt;- Start(): void&lt;br&gt;- GetMemoMode(): bool&lt;/p&gt;&lt;p style=&quot;margin:0px;margin-left:4px;&quot;&gt;- OnCellSelected(newRow: int, newCol: int): void&lt;/p&gt;&lt;p style=&quot;margin:0px;margin-left:4px;&quot;&gt;- ClearCellSelected(): void&lt;/p&gt;&lt;p style=&quot;margin:0px;margin-left:4px;&quot;&gt;- OnNumberInput(inputNumber: int): void&lt;/p&gt;" style="verticalAlign=top;align=left;overflow=fill;html=1;whiteSpace=wrap;" parent="1" vertex="1">
          <mxGeometry x="320" y="-140" width="360" height="320" as="geometry" />
        </mxCell>
        <mxCell id="U8yoPUHGCQlqRKK3olt2-1" value="" style="endArrow=diamond;html=1;rounded=0;endFill=1;entryX=0;entryY=0.75;entryDx=0;entryDy=0;exitX=0.75;exitY=0;exitDx=0;exitDy=0;edgeStyle=orthogonalEdgeStyle;" parent="1" source="Pp48qL5yRf0eUo82ehOM-4" target="Pp48qL5yRf0eUo82ehOM-5" edge="1">
          <mxGeometry width="50" height="50" relative="1" as="geometry">
            <mxPoint x="220" y="220" as="sourcePoint" />
            <mxPoint x="290" y="160" as="targetPoint" />
          </mxGeometry>
        </mxCell>
        <mxCell id="U8yoPUHGCQlqRKK3olt2-2" value="" style="endArrow=open;html=1;rounded=0;entryX=1;entryY=0.75;entryDx=0;entryDy=0;exitX=0;exitY=0.5;exitDx=0;exitDy=0;endFill=0;edgeStyle=orthogonalEdgeStyle;dashed=1;" parent="1" source="Pp48qL5yRf0eUo82ehOM-5" target="Pp48qL5yRf0eUo82ehOM-2" edge="1">
          <mxGeometry width="50" height="50" relative="1" as="geometry">
            <mxPoint x="390" y="250" as="sourcePoint" />
            <mxPoint x="440" y="200" as="targetPoint" />
          </mxGeometry>
        </mxCell>
        <mxCell id="U8yoPUHGCQlqRKK3olt2-3" value="&lt;p style=&quot;margin:0px;margin-top:4px;text-align:center;&quot;&gt;&lt;i&gt;&amp;lt;&amp;lt;Interface&amp;gt;&amp;gt;&lt;/i&gt;&lt;br&gt;&lt;b&gt;ISetting&lt;/b&gt;&lt;/p&gt;&lt;hr size=&quot;1&quot; style=&quot;border-style:solid;&quot;&gt;&lt;p style=&quot;margin:0px;margin-left:4px;&quot;&gt;&lt;br&gt;&lt;/p&gt;&lt;hr size=&quot;1&quot; style=&quot;border-style:solid;&quot;&gt;&lt;p style=&quot;margin:0px;margin-left:4px;&quot;&gt;&lt;br&gt;&lt;/p&gt;" style="verticalAlign=top;align=left;overflow=fill;html=1;whiteSpace=wrap;" parent="1" vertex="1">
          <mxGeometry x="-240" y="-40" width="160" height="120" as="geometry" />
        </mxCell>
        <mxCell id="U8yoPUHGCQlqRKK3olt2-4" value="" style="endArrow=blockThin;html=1;rounded=0;entryX=1;entryY=0.5;entryDx=0;entryDy=0;exitX=0;exitY=0.5;exitDx=0;exitDy=0;endFill=0;dashed=1;edgeStyle=orthogonalEdgeStyle;" parent="1" source="Pp48qL5yRf0eUo82ehOM-2" target="U8yoPUHGCQlqRKK3olt2-3" edge="1">
          <mxGeometry width="50" height="50" relative="1" as="geometry">
            <mxPoint x="90" y="200" as="sourcePoint" />
            <mxPoint x="140" y="150" as="targetPoint" />
          </mxGeometry>
        </mxCell>
        <mxCell id="U8yoPUHGCQlqRKK3olt2-5" value="" style="endArrow=diamond;html=1;rounded=0;entryX=0.75;entryY=1;entryDx=0;entryDy=0;exitX=0.25;exitY=0;exitDx=0;exitDy=0;edgeStyle=orthogonalEdgeStyle;endFill=1;" parent="1" source="Pp48qL5yRf0eUo82ehOM-3" target="Pp48qL5yRf0eUo82ehOM-5" edge="1">
          <mxGeometry width="50" height="50" relative="1" as="geometry">
            <mxPoint x="370" y="310" as="sourcePoint" />
            <mxPoint x="420" y="260" as="targetPoint" />
          </mxGeometry>
        </mxCell>
        <mxCell id="U8yoPUHGCQlqRKK3olt2-6" value="&lt;p style=&quot;margin:0px;margin-top:4px;text-align:center;&quot;&gt;&lt;br&gt;&lt;b&gt;Board&lt;/b&gt;&lt;/p&gt;&lt;hr size=&quot;1&quot; style=&quot;border-style:solid;&quot;&gt;&lt;p style=&quot;margin:0px;margin-left:4px;&quot;&gt;- boardTransform: Transform&lt;br&gt;- cellButtonPrefab: GameObject&lt;/p&gt;&lt;p style=&quot;margin:0px;margin-left:4px;&quot;&gt;- cells: CellButton[,]&lt;/p&gt;&lt;hr size=&quot;1&quot; style=&quot;border-style:solid;&quot;&gt;&lt;p style=&quot;margin: 0px 0px 0px 4px;&quot;&gt;+ CreateCell(aGrid: int[,], qGrid: int[,], unityAction: UnityAction&amp;lt;int, int&amp;gt;): void&lt;br&gt;+ ClearNumber(row: int, col: int): void&lt;/p&gt;&lt;p style=&quot;margin: 0px 0px 0px 4px;&quot;&gt;+ SetSelectedHighlight(currentRow: int, currentCol: int, oldRow: int, oldCol: int): void&lt;/p&gt;&lt;p style=&quot;margin: 0px 0px 0px 4px;&quot;&gt;+ ToggleMemo(row: int, col: int, number: int): void&lt;/p&gt;&lt;p style=&quot;margin: 0px 0px 0px 4px;&quot;&gt;+ ShowNumber(row: int, col: int, inputNumber: int, isCorrect: bool): void&lt;/p&gt;" style="verticalAlign=top;align=left;overflow=fill;html=1;whiteSpace=wrap;" parent="1" vertex="1">
          <mxGeometry x="520" y="720" width="470" height="180" as="geometry" />
        </mxCell>
        <mxCell id="U8yoPUHGCQlqRKK3olt2-7" value="" style="endArrow=diamond;html=1;rounded=0;entryX=0.5;entryY=1;entryDx=0;entryDy=0;exitX=0.542;exitY=-0.007;exitDx=0;exitDy=0;exitPerimeter=0;edgeStyle=orthogonalEdgeStyle;endFill=0;" parent="1" source="U8yoPUHGCQlqRKK3olt2-6" target="Pp48qL5yRf0eUo82ehOM-3" edge="1">
          <mxGeometry width="50" height="50" relative="1" as="geometry">
            <mxPoint x="700" y="440" as="sourcePoint" />
            <mxPoint x="750" y="430" as="targetPoint" />
          </mxGeometry>
        </mxCell>
        <mxCell id="U8yoPUHGCQlqRKK3olt2-8" value="&lt;p style=&quot;margin:0px;margin-top:4px;text-align:center;&quot;&gt;&lt;br&gt;&lt;b&gt;CellButton&lt;/b&gt;&lt;/p&gt;&lt;hr size=&quot;1&quot; style=&quot;border-style:solid;&quot;&gt;&lt;p style=&quot;margin:0px;margin-left:4px;&quot;&gt;- image: Image&lt;br&gt;- button: Button&lt;/p&gt;&lt;p style=&quot;margin:0px;margin-left:4px;&quot;&gt;- numberText: TextMeshProUGUI&lt;/p&gt;&lt;p style=&quot;margin:0px;margin-left:4px;&quot;&gt;- memoTexts: TextMeshProUGUI[]&lt;/p&gt;&lt;p style=&quot;margin:0px;margin-left:4px;&quot;&gt;- memoActive: bool[]&lt;/p&gt;&lt;hr size=&quot;1&quot; style=&quot;border-style:solid;&quot;&gt;&lt;p style=&quot;margin:0px;margin-left:4px;&quot;&gt;+ Initialize(row: int, col: int, answerNumber: int, questionNumber: int, unityAction: UnityAction&amp;lt;int, int&amp;gt;): void&lt;br&gt;+ SetNumber(inputNumber: int): void&lt;/p&gt;&lt;p style=&quot;margin:0px;margin-left:4px;&quot;&gt;+ SetMemoNumber(inputNumber: int): void&lt;/p&gt;&lt;p style=&quot;margin:0px;margin-left:4px;&quot;&gt;+ SetHighlight(isSelected: bool): void&lt;/p&gt;&lt;p style=&quot;margin:0px;margin-left:4px;&quot;&gt;+ SetColor(color: Color): void&lt;/p&gt;&lt;p style=&quot;margin:0px;margin-left:4px;&quot;&gt;+ SetLockCell(): void&lt;/p&gt;&lt;p style=&quot;margin:0px;margin-left:4px;&quot;&gt;- ClearMemos(): void&lt;/p&gt;" style="verticalAlign=top;align=left;overflow=fill;html=1;whiteSpace=wrap;" parent="1" vertex="1">
          <mxGeometry x="450" y="960" width="610" height="240" as="geometry" />
        </mxCell>
        <mxCell id="U8yoPUHGCQlqRKK3olt2-9" value="" style="endArrow=diamond;html=1;rounded=0;exitX=0.5;exitY=0;exitDx=0;exitDy=0;entryX=0.5;entryY=1;entryDx=0;entryDy=0;endFill=1;edgeStyle=orthogonalEdgeStyle;" parent="1" source="U8yoPUHGCQlqRKK3olt2-8" target="U8yoPUHGCQlqRKK3olt2-6" edge="1">
          <mxGeometry width="50" height="50" relative="1" as="geometry">
            <mxPoint x="750" y="950" as="sourcePoint" />
            <mxPoint x="800" y="900" as="targetPoint" />
          </mxGeometry>
        </mxCell>
        <mxCell id="U8yoPUHGCQlqRKK3olt2-10" value="&lt;p style=&quot;margin:0px;margin-top:4px;text-align:center;&quot;&gt;&lt;br&gt;&lt;b&gt;MissUI&lt;/b&gt;&lt;/p&gt;&lt;hr size=&quot;1&quot; style=&quot;border-style:solid;&quot;&gt;&lt;p style=&quot;margin:0px;margin-left:4px;&quot;&gt;- missCount: TextMeshProUGUI&lt;br&gt;- failNumber: TextMeshProUGUI&lt;/p&gt;&lt;hr size=&quot;1&quot; style=&quot;border-style:solid;&quot;&gt;&lt;p style=&quot;margin: 0px 0px 0px 4px;&quot;&gt;+ SetMissCount(missCount: int): void&lt;/p&gt;&lt;p style=&quot;margin: 0px 0px 0px 4px;&quot;&gt;+ SetFailNumber(failNumber: int): void&lt;/p&gt;" style="verticalAlign=top;align=left;overflow=fill;html=1;whiteSpace=wrap;" parent="1" vertex="1">
          <mxGeometry x="1040" y="760" width="240" height="140" as="geometry" />
        </mxCell>
        <mxCell id="U8yoPUHGCQlqRKK3olt2-11" value="" style="endArrow=diamond;html=1;rounded=0;entryX=0.795;entryY=1.007;entryDx=0;entryDy=0;exitX=0.5;exitY=0;exitDx=0;exitDy=0;edgeStyle=orthogonalEdgeStyle;endFill=0;entryPerimeter=0;" parent="1" source="U8yoPUHGCQlqRKK3olt2-10" target="Pp48qL5yRf0eUo82ehOM-3" edge="1">
          <mxGeometry width="50" height="50" relative="1" as="geometry">
            <mxPoint x="860" y="489" as="sourcePoint" />
            <mxPoint x="852" y="390" as="targetPoint" />
          </mxGeometry>
        </mxCell>
        <mxCell id="U8yoPUHGCQlqRKK3olt2-12" value="&lt;p style=&quot;margin:0px;margin-top:4px;text-align:center;&quot;&gt;&lt;br&gt;&lt;b&gt;InputNumberButton&lt;/b&gt;&lt;/p&gt;&lt;hr size=&quot;1&quot; style=&quot;border-style:solid;&quot;&gt;&lt;p style=&quot;margin:0px;margin-left:4px;&quot;&gt;- button: Button&lt;br&gt;- number: int&lt;/p&gt;&lt;hr size=&quot;1&quot; style=&quot;border-style:solid;&quot;&gt;&lt;p style=&quot;margin:0px;margin-left:4px;&quot;&gt;+ Initialize(index: int, unityAction: UnityAction&amp;lt;int&amp;gt;): void&lt;/p&gt;" style="verticalAlign=top;align=left;overflow=fill;html=1;whiteSpace=wrap;" parent="1" vertex="1">
          <mxGeometry x="1320" y="760" width="360" height="120" as="geometry" />
        </mxCell>
        <mxCell id="U8yoPUHGCQlqRKK3olt2-13" value="" style="endArrow=diamond;html=1;rounded=0;entryX=1;entryY=0.75;entryDx=0;entryDy=0;exitX=0.458;exitY=-0.014;exitDx=0;exitDy=0;edgeStyle=orthogonalEdgeStyle;endFill=0;exitPerimeter=0;" parent="1" source="U8yoPUHGCQlqRKK3olt2-12" target="Pp48qL5yRf0eUo82ehOM-3" edge="1">
          <mxGeometry width="50" height="50" relative="1" as="geometry">
            <mxPoint x="985" y="490" as="sourcePoint" />
            <mxPoint x="761" y="391" as="targetPoint" />
            <Array as="points">
              <mxPoint x="1480" y="758" />
              <mxPoint x="1480" y="480" />
            </Array>
          </mxGeometry>
        </mxCell>
        <mxCell id="U8yoPUHGCQlqRKK3olt2-14" value="&lt;p style=&quot;margin:0px;margin-top:4px;text-align:center;&quot;&gt;&lt;br&gt;&lt;b&gt;ClearButton&lt;/b&gt;&lt;/p&gt;&lt;hr size=&quot;1&quot; style=&quot;border-style:solid;&quot;&gt;&lt;p style=&quot;margin:0px;margin-left:4px;&quot;&gt;- button: Button&lt;/p&gt;&lt;hr size=&quot;1&quot; style=&quot;border-style:solid;&quot;&gt;&lt;p style=&quot;margin:0px;margin-left:4px;&quot;&gt;+ Initialize(unityAction: UnityAction): void&lt;/p&gt;" style="verticalAlign=top;align=left;overflow=fill;html=1;whiteSpace=wrap;" parent="1" vertex="1">
          <mxGeometry x="1720" y="760" width="280" height="110" as="geometry" />
        </mxCell>
        <mxCell id="U8yoPUHGCQlqRKK3olt2-15" value="" style="endArrow=diamond;html=1;rounded=0;entryX=1;entryY=0.5;entryDx=0;entryDy=0;exitX=0.5;exitY=0;exitDx=0;exitDy=0;edgeStyle=orthogonalEdgeStyle;endFill=0;" parent="1" source="U8yoPUHGCQlqRKK3olt2-14" target="Pp48qL5yRf0eUo82ehOM-3" edge="1">
          <mxGeometry width="50" height="50" relative="1" as="geometry">
            <mxPoint x="1217" y="488" as="sourcePoint" />
            <mxPoint x="800" y="355" as="targetPoint" />
            <Array as="points">
              <mxPoint x="1860" y="400" />
            </Array>
          </mxGeometry>
        </mxCell>
        <mxCell id="U8yoPUHGCQlqRKK3olt2-16" value="&lt;p style=&quot;margin:0px;margin-top:4px;text-align:center;&quot;&gt;&lt;br&gt;&lt;b&gt;MemoButton&lt;/b&gt;&lt;/p&gt;&lt;hr size=&quot;1&quot; style=&quot;border-style:solid;&quot;&gt;&lt;p style=&quot;margin:0px;margin-left:4px;&quot;&gt;- image: Image&lt;br&gt;- button: Button&lt;/p&gt;&lt;p style=&quot;margin:0px;margin-left:4px;&quot;&gt;- text: TextMeshProUGUI&lt;/p&gt;&lt;p style=&quot;margin:0px;margin-left:4px;&quot;&gt;- memoMode: Func&amp;lt;bool&amp;gt;&lt;/p&gt;&lt;hr size=&quot;1&quot; style=&quot;border-style:solid;&quot;&gt;&lt;p style=&quot;margin:0px;margin-left:4px;&quot;&gt;+ Initialize(memoMode: Func&amp;lt;boo&amp;gt;, unityAction: UnityAction): void&lt;br&gt;- UpdateVisual(): void&lt;/p&gt;" style="verticalAlign=top;align=left;overflow=fill;html=1;whiteSpace=wrap;" parent="1" vertex="1">
          <mxGeometry x="2040" y="760" width="460" height="160" as="geometry" />
        </mxCell>
        <mxCell id="U8yoPUHGCQlqRKK3olt2-17" value="" style="endArrow=diamond;html=1;rounded=0;entryX=1;entryY=0.25;entryDx=0;entryDy=0;exitX=0.5;exitY=0;exitDx=0;exitDy=0;edgeStyle=orthogonalEdgeStyle;endFill=0;" parent="1" source="U8yoPUHGCQlqRKK3olt2-16" target="Pp48qL5yRf0eUo82ehOM-3" edge="1">
          <mxGeometry width="50" height="50" relative="1" as="geometry">
            <mxPoint x="1465" y="490" as="sourcePoint" />
            <mxPoint x="800" y="320" as="targetPoint" />
            <Array as="points">
              <mxPoint x="2270" y="320" />
            </Array>
          </mxGeometry>
        </mxCell>
        <mxCell id="U8yoPUHGCQlqRKK3olt2-18" value="&lt;p style=&quot;margin:0px;margin-top:4px;text-align:center;&quot;&gt;&lt;br&gt;&lt;b&gt;Judge&lt;/b&gt;&lt;/p&gt;&lt;hr size=&quot;1&quot; style=&quot;border-style:solid;&quot;&gt;&lt;p style=&quot;margin:0px;margin-left:4px;&quot;&gt;&lt;br&gt;&lt;/p&gt;&lt;hr size=&quot;1&quot; style=&quot;border-style:solid;&quot;&gt;&lt;p style=&quot;margin:0px;margin-left:4px;&quot;&gt;+ CheckAnswer(selectCellAnswerNumber: int, inputNumber: int): bool&lt;/p&gt;" style="verticalAlign=top;align=left;overflow=fill;html=1;whiteSpace=wrap;" parent="1" vertex="1">
          <mxGeometry x="80" y="720" width="390" height="100" as="geometry" />
        </mxCell>
        <mxCell id="U8yoPUHGCQlqRKK3olt2-19" value="&lt;p style=&quot;margin:0px;margin-top:4px;text-align:center;&quot;&gt;&lt;br&gt;&lt;b&gt;MainGameInput&lt;/b&gt;&lt;/p&gt;&lt;hr size=&quot;1&quot; style=&quot;border-style:solid;&quot;&gt;&lt;p style=&quot;margin:0px;margin-left:4px;&quot;&gt;&lt;br&gt;&lt;/p&gt;&lt;hr size=&quot;1&quot; style=&quot;border-style:solid;&quot;&gt;&lt;p style=&quot;margin:0px;margin-left:4px;&quot;&gt;+ ToggleMemoMode(memoMode: ref bool): void&lt;/p&gt;" style="verticalAlign=top;align=left;overflow=fill;html=1;whiteSpace=wrap;" parent="1" vertex="1">
          <mxGeometry x="-240" y="720" width="280" height="110" as="geometry" />
        </mxCell>
        <mxCell id="U8yoPUHGCQlqRKK3olt2-20" value="&lt;p style=&quot;margin:0px;margin-top:4px;text-align:center;&quot;&gt;&lt;br&gt;&lt;b&gt;Result&lt;/b&gt;&lt;/p&gt;&lt;hr size=&quot;1&quot; style=&quot;border-style:solid;&quot;&gt;&lt;p style=&quot;margin:0px;margin-left:4px;&quot;&gt;&lt;br&gt;&lt;/p&gt;&lt;hr size=&quot;1&quot; style=&quot;border-style:solid;&quot;&gt;&lt;p style=&quot;margin:0px;margin-left:4px;&quot;&gt;+ FailNumber(difficultyType: MainGameSetting.DifficultyType): int&lt;br&gt;+ Correct(isAllCorrect: bool): void&lt;/p&gt;&lt;p style=&quot;margin:0px;margin-left:4px;&quot;&gt;+ InCorrect(missCount: ref int, failNumber: int): void&lt;/p&gt;&lt;p style=&quot;margin:0px;margin-left:4px;&quot;&gt;+ IsAllCorrect(qGrid: int[,], aGrid: int[,]): bool&lt;/p&gt;" style="verticalAlign=top;align=left;overflow=fill;html=1;whiteSpace=wrap;" parent="1" vertex="1">
          <mxGeometry x="-640" y="720" width="360" height="140" as="geometry" />
        </mxCell>
        <mxCell id="U8yoPUHGCQlqRKK3olt2-21" value="&lt;p style=&quot;margin:0px;margin-top:4px;text-align:center;&quot;&gt;&lt;br&gt;&lt;b&gt;GenerateGrid&lt;/b&gt;&lt;/p&gt;&lt;hr size=&quot;1&quot; style=&quot;border-style:solid;&quot;&gt;&lt;p style=&quot;margin:0px;margin-left:4px;&quot;&gt;&lt;u&gt;- Separator_Block: const int&lt;/u&gt;&lt;br&gt;&lt;/p&gt;&lt;hr size=&quot;1&quot; style=&quot;border-style:solid;&quot;&gt;&lt;p style=&quot;margin:0px;margin-left:4px;&quot;&gt;+ EmptyCell(difficultyType: MainGameSetting.DifficultyType): int&lt;br&gt;+ CreateAnswerGrid(row: int, col: int, aGrid: int[,]): bool&lt;/p&gt;&lt;p style=&quot;margin:0px;margin-left:4px;&quot;&gt;- CheckNumber(row: int, col: int, num: int, grid: int[,]): bool&lt;/p&gt;&lt;p style=&quot;margin:0px;margin-left:4px;&quot;&gt;- ShuffleNumbers&amp;lt;T&amp;gt;(list: List&amp;lt;T&amp;gt;): void&lt;/p&gt;&lt;p style=&quot;margin:0px;margin-left:4px;&quot;&gt;+ CreateQuestionGrid(qGrid: int[,], emptyCell: int): void&lt;/p&gt;&lt;p style=&quot;margin:0px;margin-left:4px;&quot;&gt;- CountSolutions(copyGrid: int[,]): int&lt;/p&gt;&lt;p style=&quot;margin:0px;margin-left:4px;&quot;&gt;- CheckSolutions(row: int, col: int, copyGrid: int[,], count: ref int): bool&lt;/p&gt;&lt;p style=&quot;margin:0px;margin-left:4px;&quot;&gt;+ DebugGrid(grid: int[,]): void&lt;/p&gt;" style="verticalAlign=top;align=left;overflow=fill;html=1;whiteSpace=wrap;" parent="1" vertex="1">
          <mxGeometry x="-1120" y="720" width="420" height="200" as="geometry" />
        </mxCell>
        <mxCell id="U8yoPUHGCQlqRKK3olt2-22" value="" style="endArrow=diamond;html=1;rounded=0;entryX=0.75;entryY=1;entryDx=0;entryDy=0;exitX=0.5;exitY=0;exitDx=0;exitDy=0;edgeStyle=orthogonalEdgeStyle;endFill=0;" parent="1" source="U8yoPUHGCQlqRKK3olt2-18" target="Pp48qL5yRf0eUo82ehOM-4" edge="1">
          <mxGeometry width="50" height="50" relative="1" as="geometry">
            <mxPoint x="290" y="489" as="sourcePoint" />
            <mxPoint x="282" y="390" as="targetPoint" />
          </mxGeometry>
        </mxCell>
        <mxCell id="U8yoPUHGCQlqRKK3olt2-23" value="" style="endArrow=diamond;html=1;rounded=0;entryX=0.5;entryY=1;entryDx=0;entryDy=0;exitX=0.5;exitY=0;exitDx=0;exitDy=0;edgeStyle=orthogonalEdgeStyle;endFill=0;" parent="1" source="U8yoPUHGCQlqRKK3olt2-19" target="Pp48qL5yRf0eUo82ehOM-4" edge="1">
          <mxGeometry width="50" height="50" relative="1" as="geometry">
            <mxPoint x="345" y="490" as="sourcePoint" />
            <mxPoint x="273" y="390" as="targetPoint" />
          </mxGeometry>
        </mxCell>
        <mxCell id="U8yoPUHGCQlqRKK3olt2-24" value="" style="endArrow=diamond;html=1;rounded=0;entryX=0;entryY=0.75;entryDx=0;entryDy=0;exitX=0.5;exitY=0;exitDx=0;exitDy=0;edgeStyle=orthogonalEdgeStyle;endFill=0;" parent="1" source="U8yoPUHGCQlqRKK3olt2-20" target="Pp48qL5yRf0eUo82ehOM-4" edge="1">
          <mxGeometry width="50" height="50" relative="1" as="geometry">
            <mxPoint x="-170.5" y="390" as="sourcePoint" />
            <mxPoint x="-50.5" y="290" as="targetPoint" />
          </mxGeometry>
        </mxCell>
        <mxCell id="U8yoPUHGCQlqRKK3olt2-25" value="" style="endArrow=diamond;html=1;rounded=0;entryX=0;entryY=0.5;entryDx=0;entryDy=0;exitX=0.5;exitY=0;exitDx=0;exitDy=0;edgeStyle=orthogonalEdgeStyle;endFill=0;" parent="1" source="U8yoPUHGCQlqRKK3olt2-21" target="Pp48qL5yRf0eUo82ehOM-4" edge="1">
          <mxGeometry width="50" height="50" relative="1" as="geometry">
            <mxPoint x="-135" y="490" as="sourcePoint" />
            <mxPoint x="130" y="355" as="targetPoint" />
          </mxGeometry>
        </mxCell>
        <mxCell id="U8yoPUHGCQlqRKK3olt2-26" value="" style="endArrow=open;html=1;rounded=0;entryX=0;entryY=0.75;entryDx=0;entryDy=0;exitX=0.75;exitY=0;exitDx=0;exitDy=0;endFill=0;edgeStyle=orthogonalEdgeStyle;dashed=1;" parent="1" source="U8yoPUHGCQlqRKK3olt2-21" target="Pp48qL5yRf0eUo82ehOM-2" edge="1">
          <mxGeometry width="50" height="50" relative="1" as="geometry">
            <mxPoint x="-30" y="215" as="sourcePoint" />
            <mxPoint x="-120" y="170" as="targetPoint" />
            <Array as="points">
              <mxPoint x="-805" y="230" />
              <mxPoint x="-40" y="230" />
              <mxPoint x="-40" y="65" />
            </Array>
          </mxGeometry>
        </mxCell>
        <mxCell id="U8yoPUHGCQlqRKK3olt2-27" value="" style="endArrow=open;html=1;rounded=0;entryX=0.25;entryY=1;entryDx=0;entryDy=0;exitX=0.75;exitY=0;exitDx=0;exitDy=0;endFill=0;edgeStyle=orthogonalEdgeStyle;dashed=1;" parent="1" source="U8yoPUHGCQlqRKK3olt2-20" target="Pp48qL5yRf0eUo82ehOM-2" edge="1">
          <mxGeometry width="50" height="50" relative="1" as="geometry">
            <mxPoint x="-327" y="490" as="sourcePoint" />
            <mxPoint x="98" y="110" as="targetPoint" />
            <Array as="points">
              <mxPoint x="-370" y="280" />
              <mxPoint x="60" y="280" />
            </Array>
          </mxGeometry>
        </mxCell>
        <mxCell id="U8yoPUHGCQlqRKK3olt2-28" value="" style="endArrow=open;html=1;rounded=0;entryX=0.75;entryY=1;entryDx=0;entryDy=0;exitX=0.5;exitY=0;exitDx=0;exitDy=0;endFill=0;edgeStyle=orthogonalEdgeStyle;dashed=1;" parent="1" source="Pp48qL5yRf0eUo82ehOM-4" target="Pp48qL5yRf0eUo82ehOM-2" edge="1">
          <mxGeometry width="50" height="50" relative="1" as="geometry">
            <mxPoint x="-87" y="490" as="sourcePoint" />
            <mxPoint x="98" y="110" as="targetPoint" />
          </mxGeometry>
        </mxCell>
      </root>
    </mxGraphModel>
  </diagram>
</mxfile>
